<svg width="258.8" height="231" viewBox="0 0 68.5 61.1" xml:space="preserve" xmlns="http://www.w3.org/2000/svg"><defs><radialGradient id="a" cx="0" cy="0" r="1" gradientUnits="userSpaceOnUse" gradientTransform="matrix(0 19.92643 -22.67407 0 103 138)" fx="0" fy="0"><stop stop-color="#5F00DA"/><stop offset="1" stop-color="#320074"/></radialGradient></defs><path d="m103 118 18 30H86Z" fill="url(#paint0_radial_6_78)" style="fill:url(#a);stroke-width:.264583" transform="matrix(1 0 0 1.02965 -69 -101)"/><g style="fill:#2f2f2f;fill-opacity:1"><path style="opacity:1;fill:#fff;fill-opacity:1;fill-rule:evenodd;stroke:none;stroke-width:.235909;stroke-linejoin:miter;stroke-dasharray:none;stroke-opacity:1" transform="matrix(1 0 -.49031 .8974 -69 -101)" d="M158 175h6v6h-6z"/><path style="opacity:1;fill:#fff;fill-opacity:1;fill-rule:evenodd;stroke:none;stroke-width:.235909;stroke-linejoin:miter;stroke-dasharray:none;stroke-opacity:1" transform="matrix(-1 0 .49031 .8974 -69 -101)" d="M-49 175h6v6h-6z"/><path style="opacity:1;fill:#fff;fill-opacity:1;fill-rule:evenodd;stroke:none;stroke-width:.264999;stroke-linejoin:miter;stroke-dasharray:none;stroke-opacity:1" d="m75 148 22-39 3 5-19 34zM100 103l26 45h6l-29-50ZM81 158l3-6h39l3 6z" transform="matrix(1 0 0 1.02965 -69 -101)"/></g></svg>